<?xml version="1.0" encoding="utf-8" ?>
<svg xmlns="http://www.w3.org/2000/svg" xmlns:xlink="http://www.w3.org/1999/xlink" width="4" height="7">
	<defs>
		<clipPath id="clip_0">
			<rect width="4" height="7" clip-rule="evenodd"/>
		</clipPath>
	</defs>
	<g clip-path="url(#clip_0)">
		<path fill="rgb(164,164,164)" stroke="none" d="M3.93126 3.33882L0.728489 0.0704714C0.682353 0.0238079 0.629758 0 0.570242 0C0.510727 0 0.458131 0.0238079 0.412457 0.0704714L0.0687428 0.420924C0.0226067 0.467587 0 0.521393 0 0.582341C0 0.64329 0.0226067 0.697095 0.0687428 0.743759L2.76955 3.50024L0.0687428 6.25672C0.0226067 6.30338 0 6.35719 0 6.41766C0 6.47861 0.0226067 6.53289 0.0687428 6.57908L0.412457 6.93C0.458131 6.97667 0.510727 7 0.570242 7C0.629758 7 0.682353 6.97667 0.728489 6.93L3.93126 3.66166C3.97693 3.61499 4 3.56071 4 3.50024C4 3.43929 3.97693 3.38548 3.93126 3.33882"/>
	</g>

</svg>