<?xml version="1.0" encoding="utf-8" ?>
<svg xmlns="http://www.w3.org/2000/svg" xmlns:xlink="http://www.w3.org/1999/xlink" width="8" height="14">
	<defs>
		<clipPath id="clip_0">
			<path d="M0 14L8 14L8 0L0 0L0 14Z" clip-rule="evenodd"/>
		</clipPath>
	</defs>
	<g clip-path="url(#clip_0)">
		<path fill="rgb(255,255,255)" stroke="none" transform="matrix(-1 8.74228e-08 -8.74228e-08 -1 8 14)" d="M7.86251 6.67764L1.45698 0.140943C1.36471 0.0476158 1.25952 0 1.14048 0C1.02145 0 0.916263 0.0476158 0.824914 0.140943L0.137486 0.841847C0.0452134 0.935175 0 1.04279 0 1.16468C0 1.28658 0.0452134 1.39419 0.137486 1.48752L5.5391 7.00048L0.137486 12.5134C0.0452134 12.6068 0 12.7144 0 12.8353C0 12.9572 0.0452134 13.0658 0.137486 13.1582L0.824914 13.86C0.916263 13.9533 1.02145 14 1.14048 14C1.25952 14 1.36471 13.9533 1.45698 13.86L7.86251 7.32331C7.95386 7.22998 8 7.12142 8 7.00048C8 6.87858 7.95386 6.77097 7.86251 6.67764"/>
	</g>
	<defs>
		<clipPath id="clip_1">
			<path d="M0 14L8 14L8 0L0 0L0 14Z" clip-rule="evenodd"/>
		</clipPath>
	</defs>
	<g clip-path="url(#clip_1)">
		<path fill="rgb(255,255,255)" stroke="none" transform="matrix(-1 8.74228e-08 -8.74228e-08 -1 8 14)" d="M7.86251 6.67764L1.45698 0.140943C1.36471 0.0476158 1.25952 0 1.14048 0C1.02145 0 0.916263 0.0476158 0.824914 0.140943L0.137486 0.841847C0.0452134 0.935175 0 1.04279 0 1.16468C0 1.28658 0.0452134 1.39419 0.137486 1.48752L5.5391 7.00048L0.137486 12.5134C0.0452134 12.6068 0 12.7144 0 12.8353C0 12.9572 0.0452134 13.0658 0.137486 13.1582L0.824914 13.86C0.916263 13.9533 1.02145 14 1.14048 14C1.25952 14 1.36471 13.9533 1.45698 13.86L7.86251 7.32331C7.95386 7.22998 8 7.12142 8 7.00048C8 6.87858 7.95386 6.77097 7.86251 6.67764"/>
	</g>

</svg>