<?xml version="1.0" encoding="utf-8" ?>
<svg xmlns="http://www.w3.org/2000/svg" xmlns:xlink="http://www.w3.org/1999/xlink" width="13" height="16">
	<defs>
		<clipPath id="clip_0">
			<rect width="13" height="16" clip-rule="evenodd"/>
		</clipPath>
	</defs>
	<g clip-path="url(#clip_0)">
		<path fill="rgb(255,212,87)" stroke="none" d="M9.67807 4.20108L6.93333 1.46205L6.93333 9.08108C6.93333 9.32022 6.73963 9.51351 6.5 9.51351C6.26037 9.51351 6.06667 9.32022 6.06667 9.08108L6.06667 1.46205L3.32193 4.20108C3.15683 4.36584 2.88903 4.36584 2.7235 4.20108C2.5584 4.03632 2.5584 3.76865 2.7235 3.60389L6.149 0.185514C6.16287 0.165189 6.17197 0.141838 6.19017 0.123243C6.27467 0.0393514 6.3856 -0.000864865 6.49567 0.000864865C6.4974 0.000864865 6.49827 0 6.5 0C6.50173 0 6.50303 0.000864865 6.50433 0.000864865C6.61527 -0.000432432 6.72577 0.0393514 6.80983 0.123243C6.8276 0.141405 6.83583 0.163892 6.84927 0.183784L10.2765 3.60389C10.4416 3.76865 10.4416 4.03632 10.2765 4.20108C10.111 4.36584 9.84317 4.36584 9.67807 4.20108M10.8333 16L2.16667 16C0.9698 16 0 15.0322 0 13.8378L0 7.78378C0 6.58984 0.9698 5.62162 2.16667 5.62162L3.9 5.62162C4.13963 5.62162 4.33333 5.81535 4.33333 6.05405C4.33333 6.29276 4.13963 6.48649 3.9 6.48649L2.16667 6.48649C1.44907 6.48649 0.866667 7.06768 0.866667 7.78378L0.866667 13.8378C0.866667 14.5544 1.44907 15.1351 2.16667 15.1351L10.8333 15.1351C11.5514 15.1351 12.1333 14.5544 12.1333 13.8378L12.1333 7.78378C12.1333 7.06768 11.5514 6.48649 10.8333 6.48649L9.1 6.48649C8.86037 6.48649 8.66667 6.29276 8.66667 6.05405C8.66667 5.81535 8.86037 5.62162 9.1 5.62162L10.8333 5.62162C12.0302 5.62162 13 6.58984 13 7.78378L13 13.8378C13 15.0322 12.0302 16 10.8333 16"/>
	</g>

</svg>