<?xml version="1.0" encoding="utf-8" ?>
<svg xmlns="http://www.w3.org/2000/svg" xmlns:xlink="http://www.w3.org/1999/xlink" width="16" height="10">
	<defs>
		<clipPath id="clip_0">
			<rect y="0.020492554" width="15.999954" height="9.9795074" clip-rule="evenodd"/>
		</clipPath>
	</defs>
	<g clip-path="url(#clip_0)">
		<path fill="rgb(106,106,108)" stroke="none" d="M1.19938 4.98942C2.02081 5.96446 4.79584 8.94712 7.99991 8.94712C11.2108 8.94712 13.98 5.96602 14.8004 4.99009C13.9786 4.01453 11.2038 1.03235 7.99991 1.03235C4.789 1.03235 2.01975 4.01349 1.19938 4.98942M7.89831 9.97951C3.60383 9.97951 0.24121 5.48563 0.100242 5.29431C-0.0334139 5.11278 -0.0334139 4.86657 0.100242 4.68505C0.24121 4.49388 3.60383 0 7.89831 0C12.1928 0 15.5552 4.49388 15.6964 4.68523C15.8302 4.86657 15.8302 5.11297 15.6964 5.29446C15.5552 5.48563 12.1928 9.97951 7.89831 9.97951"/>
	</g>
	<defs>
		<clipPath id="clip_1">
			<rect x="-337" y="-335" width="375" height="812" clip-rule="evenodd"/>
		</clipPath>
	</defs>
	<g clip-path="url(#clip_1)">
		<path fill="rgb(106,106,108)" stroke="none" transform="translate(4.57153 1.53846)" d="M3.04763 1.02564C1.92731 1.02564 1.01587 1.94582 1.01587 3.07694C1.01587 4.20803 1.92731 5.12821 3.04763 5.12821C4.16795 5.12821 5.0794 4.20803 5.0794 3.07694C5.0794 1.94582 4.16795 1.02564 3.04763 1.02564M3.04763 6.15385C1.3672 6.15385 0 4.7735 0 3.07694C0 1.38035 1.3672 0 3.04763 0C4.72807 0 6.09524 1.38035 6.09524 3.07694C6.09524 4.7735 4.72807 6.15385 3.04763 6.15385"/>
	</g>

</svg>