<?xml version="1.0" encoding="utf-8" ?>
<svg xmlns="http://www.w3.org/2000/svg" xmlns:xlink="http://www.w3.org/1999/xlink" width="17" height="15">
	<defs>
		<clipPath id="clip_0">
			<rect x="-294" y="-711" width="375" height="2026" clip-rule="evenodd"/>
		</clipPath>
	</defs>
	<g clip-path="url(#clip_0)">
		<path fill="rgb(255,212,87)" stroke="none" d="M8.21548 14.7488L8.5 15L8.78452 14.7488C15.2573 9.4378 17 7.57177 17 4.52153C17 2.04545 15.0084 0 12.5188 0C10.4561 0 9.28243 1.18421 8.5 2.08134C7.71757 1.18421 6.54393 0 4.48117 0C2.0272 0 0 2.00957 0 4.52153C0 7.57177 1.74268 9.4378 8.21548 14.7488ZM0.924686 4.52153C0.924686 2.54785 2.5251 0.933014 4.48117 0.933014C6.25941 0.933014 7.21966 2.00957 7.96653 2.87081L8.5 3.48086L9.03347 2.87081C9.78033 2.00957 10.7406 0.933014 12.5188 0.933014C14.4749 0.933014 16.0753 2.54785 16.0753 4.52153C16.0753 7.14115 14.4393 8.86364 8.5 13.7799C2.56067 8.86364 0.924686 7.14115 0.924686 4.52153Z" fill-rule="evenodd"/>
	</g>

</svg>