<?xml version="1.0" encoding="utf-8"?>
<!-- Generator: Adobe Illustrator 22.1.0, SVG Export Plug-In . SVG Version: 6.00 Build 0)  -->
<svg version="1.1" id="Layer_1" xmlns="http://www.w3.org/2000/svg" xmlns:xlink="http://www.w3.org/1999/xlink" x="0px" y="0px"
	 viewBox="0 0 17 14" style="enable-background:new 0 0 17 14;" xml:space="preserve">
<style type="text/css">
	.st0{fill:none;stroke:#FFD549;}
</style>
<title>Page 1</title>
<desc>Created with Sketch.</desc>
<g id="Homepages">
	<g id="Navigation-1" transform="translate(-24.000000, -522.000000)">
		<g id="Page-1" transform="translate(25.000000, 523.000000)">
			<path id="Fill-1" class="st0" d="M4.1,5.6h6.7V2.1c0-0.6,0-1-0.1-1.2c-0.1-0.1-0.2-0.3-0.4-0.4c-0.3-0.1-0.6-0.2-1-0.2H8.8V0H15
				v0.3h-0.5c-0.3,0-0.7,0.1-1,0.2C13.3,0.6,13.1,0.8,13,1c-0.1,0.2-0.1,0.6-0.1,1.2v7.7c0,0.6,0,1,0.1,1.2c0.1,0.1,0.2,0.3,0.4,0.4
				c0.3,0.1,0.6,0.2,1,0.2H15V12H8.8v-0.3h0.5c0.6,0,1-0.1,1.3-0.4c0.2-0.2,0.3-0.6,0.3-1.4V6.2H4.1v3.7c0,0.6,0,1,0.1,1.2
				c0.1,0.1,0.2,0.3,0.4,0.4c0.3,0.1,0.6,0.2,1,0.2h0.5V12H0v-0.3h0.5c0.6,0,1-0.1,1.3-0.4c0.2-0.2,0.3-0.6,0.3-1.4V2.1
				c0-0.6,0-1-0.1-1.2C1.9,0.8,1.7,0.6,1.5,0.5c-0.3-0.1-0.6-0.2-1-0.2H0V0h6.2v0.3H5.7c-0.3,0-0.7,0.1-1,0.2C4.5,0.6,4.3,0.8,4.3,1
				C4.2,1.2,4.1,1.5,4.1,2.1V5.6z"/>
		</g>
	</g>
</g>
</svg>
