<?xml version="1.0" encoding="UTF-8" standalone="no"?>
<svg width="17px" height="14px" viewBox="0 0 17 14" version="1.1" xmlns="http://www.w3.org/2000/svg" xmlns:xlink="http://www.w3.org/1999/xlink">
    <!-- Generator: Sketch 50.2 (55047) - http://www.bohemiancoding.com/sketch -->
    <title>Page 1</title>
    <desc>Created with Sketch.</desc>
    <defs></defs>
    <g id="Homepages" stroke="none" stroke-width="1" fill="none" fill-rule="evenodd">
        <g id="Navigation-1" transform="translate(-24.000000, -522.000000)" stroke="#A4A4A4">
            <g id="Page-1" transform="translate(25.000000, 523.000000)">
                <path d="M4.1298174,5.56642675 L10.8701826,5.56642675 L10.8701826,2.13282169 C10.8701826,1.51931904 10.8237387,1.1150662 10.7311584,0.920444788 C10.6596471,0.77301589 10.5098578,0.646066761 10.2816367,0.539851808 C9.97498385,0.398274272 9.65049161,0.327421902 9.30815998,0.327421902 L8.79466254,0.327421902 L8.79466254,0 L15,0 L15,0.327421902 L14.4865026,0.327421902 C14.1440171,0.327421902 13.8193711,0.395348591 13.512872,0.531074764 C13.2844972,0.625459788 13.1293253,0.768563766 13.0473564,0.960259495 C12.9653875,1.15195522 12.9244799,1.54285169 12.9244799,2.13282169 L12.9244799,9.87608256 C12.9244799,10.4838611 12.9707701,10.885061 13.0635041,11.0796824 C13.1347079,11.2272385 13.28096,11.3540604 13.5021069,11.4601482 C13.815834,11.6017257 14.1440171,11.6725781 14.4865026,11.6725781 L15,11.6725781 L15,12 L8.79466254,12 L8.79466254,11.6725781 L9.30815998,11.6725781 C9.9000892,11.6725781 10.3316177,11.5280749 10.6027456,11.2389412 C10.7809857,11.0501712 10.8701826,10.5960546 10.8701826,9.87608256 L10.8701826,6.22127055 L4.1298174,6.22127055 L4.1298174,9.87608256 C4.1298174,10.4838611 4.17610753,10.885061 4.26884157,11.0796824 C4.34004532,11.2272385 4.48983463,11.3540604 4.7182095,11.4601482 C5.02486236,11.6017257 5.34950839,11.6725781 5.69184002,11.6725781 L6.21610261,11.6725781 L6.21610261,12 L0,12 L0,11.6725781 L0.513497442,11.6725781 C1.11265468,11.6725781 1.54756656,11.5280749 1.81884823,11.2389412 C1.99001405,11.0501712 2.07567385,10.5960546 2.07567385,9.87608256 L2.07567385,2.13282169 C2.07567385,1.51931904 2.02907615,1.1150662 1.93649589,0.920444788 C1.86513836,0.77301589 1.71888617,0.646066761 1.49789311,0.539851808 C1.18385843,0.398274272 0.85582907,0.327421902 0.513497442,0.327421902 L0,0.327421902 L0,0 L6.21610261,0 L6.21610261,0.327421902 L5.69184002,0.327421902 C5.34950839,0.327421902 5.02486236,0.395348591 4.7182095,0.531074764 C4.49706265,0.625459788 4.34373622,0.768563766 4.25823021,0.960259495 C4.17257041,1.15195522 4.1298174,1.54285169 4.1298174,2.13282169 L4.1298174,5.56642675 Z" id="Fill-1"></path>
            </g>
        </g>
    </g>
</svg>