<?xml version="1.0" encoding="utf-8"?>
<!-- Generator: Adobe Illustrator 22.1.0, SVG Export Plug-In . SVG Version: 6.00 Build 0)  -->
<svg version="1.1" id="Layer_1" xmlns="http://www.w3.org/2000/svg" xmlns:xlink="http://www.w3.org/1999/xlink" x="0px" y="0px"
	 viewBox="0 0 17 18" style="enable-background:new 0 0 17 18;" xml:space="preserve">
<style type="text/css">
	.st0{fill:none;stroke:#FFD549;stroke-linecap:round;stroke-linejoin:round;}
</style>
<title>Page 1</title>
<desc>Created with Sketch.</desc>
<g id="Homepages">
	<g id="Navigation-1" transform="translate(-24.000000, -189.000000)">
		<path id="Page-1" class="st0" d="M39.7,197.9h-1.5c-0.1,0-0.3,0.1-0.3,0.3v7.6c0,0.1-0.1,0.3-0.3,0.3h-2.4c-0.1,0-0.3-0.1-0.3-0.3
			V201c0-0.1-0.1-0.3-0.3-0.3h-4.6c-0.1,0-0.3,0.1-0.3,0.3v4.7c0,0.1-0.1,0.3-0.3,0.3h-2.4c-0.1,0-0.3-0.1-0.3-0.3v-7.6
			c0-0.1-0.1-0.3-0.3-0.3h-1.5c-0.2,0-0.4-0.3-0.2-0.5l7.2-7.3c0.1-0.1,0.3-0.1,0.4,0l7.2,7.3C40.1,197.6,40,197.9,39.7,197.9z"/>
	</g>
</g>
</svg>
