<?xml version="1.0" encoding="utf-8" ?>
<svg xmlns="http://www.w3.org/2000/svg" xmlns:xlink="http://www.w3.org/1999/xlink" width="78" height="37">
	<defs>
		<clipPath id="clip_0">
			<rect x="71.071777" y="29.081314" width="6.8703461" height="6.8242722" clip-rule="evenodd"/>
		</clipPath>
	</defs>
	<g clip-path="url(#clip_0)">
		<path fill="rgb(255,212,87)" stroke="none" transform="translate(71.0718 29.0813)" d="M0 3.41179C0 1.98575 0.999645 0 3.43546 0C5.37127 0 6.87039 1.24068 6.87039 3.22643C6.87039 5.21114 5.49632 6.82427 3.37268 6.82427C0.999645 6.82427 0 4.96325 0 3.41179"/>
	</g>
	<defs>
		<clipPath id="clip_1">
			<rect y="0.089797974" width="49.553688" height="35.910206" clip-rule="evenodd"/>
		</clipPath>
	</defs>
	<g clip-path="url(#clip_1)">
		<path fill="rgb(255,212,87)" stroke="none" transform="translate(0 0.089798)" d="M23.3782 6.34237C19.7717 12.5919 11.4403 28.8677 10.0725 32.226C9.76141 32.9255 9.51305 33.5785 9.51305 33.9976C9.51305 34.371 9.69936 34.8373 10.3212 35.0704C11.0673 35.2571 11.9999 35.2571 12.6838 35.2571C13.057 35.2571 13.3681 35.3036 13.3681 35.5366C13.3681 35.8164 12.9948 35.9103 11.9998 35.9103C9.5127 35.9103 6.65284 35.77 5.90673 35.77C5.53358 35.77 2.86021 35.9103 1.05722 35.9103C0.373147 35.9103 0 35.8164 0 35.5833C0 35.3499 0.248706 35.2571 0.746118 35.2571C1.18149 35.2571 2.54946 35.2571 3.73042 34.6969C4.53893 34.278 5.47136 33.4846 7.15026 30.3132C7.83416 29.0081 10.9429 23.4112 14.1139 17.6751C17.9067 10.8663 20.7043 5.82959 22.1343 3.54436C23.8756 0.746354 24.124 0 24.7456 0C25.4919 0 25.8025 0.652995 26.9842 2.89137L42.2175 31.4792C43.5849 34.0913 44.5175 34.6041 46.6935 35.0704C47.6263 35.2571 48.6831 35.2571 49.0563 35.2571C49.4294 35.2571 49.5537 35.3966 49.5537 35.5833C49.5537 35.8637 48.932 35.9103 47.9372 35.9103C44.9529 35.9103 41.409 35.77 40.6627 35.77C40.0408 35.77 37.2428 35.9103 34.8806 35.9103C33.7609 35.9103 33.2015 35.8164 33.2015 35.5833C33.2015 35.3499 33.3883 35.2571 33.8237 35.2571C34.5074 35.2571 35.6265 35.2108 36.186 35.024C36.8702 34.7908 36.9945 34.4174 36.9945 34.0913C36.9945 33.4846 36.2485 32.0393 35.3159 30.2204L23.3782 6.34237Z"/>
	</g>
	<defs>
		<clipPath id="clip_2">
			<rect x="-146" y="-399" width="375" height="812" clip-rule="evenodd"/>
		</clipPath>
	</defs>
	<g clip-path="url(#clip_2)">
		<path fill="rgb(255,212,87)" stroke="none" transform="translate(17.3333 0)" d="M24.5323 6.35822C20.7477 12.6234 12.0051 28.94 10.5698 32.3066C10.2434 33.0078 9.9826 33.6626 9.9826 34.0824C9.9826 34.4568 10.1782 34.9244 10.8308 35.1582C11.6138 35.3454 12.5925 35.3454 13.3099 35.3454C13.7015 35.3454 14.0281 35.3918 14.0281 35.6256C14.0281 35.9061 13.6363 36 12.5921 36C9.98243 36 6.98134 35.8593 6.19833 35.8593C5.80674 35.8593 3.00144 36 1.10939 36C0.391591 36 0 35.9061 0 35.6721C0 35.4384 0.261003 35.3454 0.783008 35.3454C1.23981 35.3454 2.67523 35.3454 3.91469 34.7838C4.76308 34.3637 5.74153 33.5685 7.50317 30.3891C8.22097 29.0806 11.4831 23.4697 14.8107 17.7193C18.7908 10.8936 21.7265 5.84416 23.2271 3.55322C25.0543 0.748219 25.315 0 25.9672 0C26.7504 0 27.0763 0.654627 28.3164 2.89859L44.3014 31.5578C45.7365 34.1765 46.7153 34.6907 48.9986 35.1582C49.9772 35.3454 51.0864 35.3454 51.478 35.3454C51.8696 35.3454 52 35.4849 52 35.6721C52 35.9534 51.3476 36 50.3036 36C47.1719 36 43.4532 35.8593 42.6698 35.8593C42.0176 35.8593 39.0813 36 36.6024 36C35.4277 36 34.8404 35.9061 34.8404 35.6721C34.8404 35.4384 35.0366 35.3454 35.4934 35.3454C36.2108 35.3454 37.3851 35.2988 37.9723 35.1116C38.6904 34.8779 38.8207 34.5036 38.8207 34.1765C38.8207 33.5685 38.038 32.1194 37.0594 30.2959L24.5323 6.35822Z"/>
	</g>

</svg>