<?xml version="1.0" encoding="UTF-8" standalone="no"?>
<svg width="17px" height="17px" viewBox="0 0 17 17" version="1.1" xmlns="http://www.w3.org/2000/svg" xmlns:xlink="http://www.w3.org/1999/xlink">
    <!-- Generator: Sketch 50.2 (55047) - http://www.bohemiancoding.com/sketch -->
    <title>Page 1</title>
    <desc>Created with Sketch.</desc>
    <defs></defs>
    <g id="Homepages" stroke="none" stroke-width="1" fill="none" fill-rule="evenodd">
        <g id="Navigation-1" transform="translate(-24.000000, -301.000000)" stroke="#979797">
            <g id="Page-1" transform="translate(32.500000, 309.500000) rotate(1.000000) translate(-32.500000, -309.500000) translate(25.000000, 302.000000)">
                <g id="Group-3" transform="translate(4.000000, 0.000000)">
                    <path d="M3.392,-1.24344979e-14 C1.52145455,-1.24344979e-14 -1.77635684e-14,1.71163636 -1.77635684e-14,3.816 C-1.77635684e-14,5.92036364 1.52145455,7.63527273 3.392,7.63527273 C5.26254545,7.63527273 6.784,5.92363636 6.784,3.81927273 C6.784,1.71490909 5.26254545,-1.24344979e-14 3.392,-1.24344979e-14" id="Fill-1"></path>
                </g>
                <path d="M14.6856402,15 C14.5163231,15 14.3772962,14.85753 14.3772962,14.6840883 C14.3772962,10.7971351 11.2908027,7.63492063 7.49699213,7.63492063 C3.70315136,7.63492063 0.616688063,10.7971351 0.616688063,14.6840883 C0.616688063,14.85753 0.47763095,15 0.308313802,15 C0.139057112,15 0,14.85753 0,14.6840883 C0,12.630662 0.77992902,10.7011227 2.19767674,9.25164537 C3.61548492,7.80216802 5.49880189,7 7.50001511,7 C9.50122834,7 11.3875381,7.79907085 12.802293,9.25164537 C14.2170782,10.7042199 15,12.6337592 15,14.6840883 C14.993954,14.85753 14.8549272,15 14.6856402,15" id="Fill-4" stroke-width="0.5" fill="#A4A4A4"></path>
            </g>
        </g>
    </g>
</svg>